<svg width="40" height="41" viewBox="0 0 40 41" fill="none" xmlns="http://www.w3.org/2000/svg">
<path d="M30.1826 35.4509H30.1842V33.5898L30.1826 33.5915V35.4509Z" fill="#E6E6FF"/>
<path d="M36.7231 20.2673V31.2225C38.8247 28.0095 39.9514 24.2534 39.9514 20.3238V20.2673H36.7231Z" fill="#E6E6FF"/>
<path d="M7.10138 31.0241C7.09331 31.0144 7.08605 31.0056 7.07798 30.9959L7.07636 30.9943C4.67372 28.0945 3.22827 24.3747 3.22827 20.324C3.22827 11.1178 10.6961 3.62178 19.8918 3.57739V0.349121C14.5877 0.370105 9.60329 2.44669 5.85124 6.19955C2.0782 9.97259 0 14.9885 0 20.324C0 25.1309 1.68596 29.6779 4.77945 33.2904C4.77945 33.2912 4.78026 33.292 4.78106 33.2928C4.78914 33.3017 4.79721 33.3113 4.80447 33.3202L4.81173 33.313L7.10138 31.0241Z" fill="#E6E6FF"/>
<path d="M9.33128 33.252L7.0376 35.5457C8.90273 37.1364 11.0156 38.3527 13.2851 39.1573V35.6772C11.8534 35.051 10.5257 34.2302 9.33451 33.2488L9.33128 33.252Z" fill="#E6E6FF"/>
<path d="M26.633 23.8806H23.3022V40.0244C24.441 39.8355 25.554 39.5482 26.633 39.1681C26.6362 39.1673 26.6387 39.1657 26.6419 39.1648V35.6864C26.6419 35.6864 26.6362 35.6888 26.633 35.6904V23.8806Z" fill="#E6E6FF"/>
<path d="M19.9468 3.63232V6.7476H19.9185V6.78473H31.3401L30.6711 7.45379L28.4468 9.67887L28.4032 9.72245L26.141 11.9839L19.9185 18.2063L11.6743 26.4513C10.4185 24.7412 9.67602 22.6323 9.67602 20.3523C9.67602 14.6867 14.2634 10.0719 19.9185 10.0267V6.79764C19.6062 6.79925 19.2963 6.81217 18.9896 6.83477C11.9867 7.35452 6.44775 13.2187 6.44775 20.3523C6.44775 23.5225 7.54133 26.4416 9.37256 28.7531L9.37418 28.7547C10.0271 29.5803 10.7744 30.3277 11.6001 30.9806C11.6001 30.9806 11.6006 30.9811 11.6017 30.9822L13.286 29.2979L14.4829 28.101L22.2889 20.2958L22.3171 20.2676L28.3314 14.2541L28.3717 14.2138L32.9018 9.6829L33.57 9.01465V20.2676H36.7224V3.63232H19.9468Z" fill="#E6E6FF"/>
<path d="M7.00696 35.5188C6.60988 35.179 6.22491 34.8223 5.85124 34.4486C5.48645 34.0838 5.13779 33.7077 4.80447 33.3203L2.146 35.9796L4.37511 38.2087L7.03843 35.5454C7.02875 35.5373 7.01826 35.5284 7.00857 35.5204C7.00857 35.5204 7.00804 35.5198 7.00696 35.5188Z" fill="#E6E6FF"/>
<path d="M30.3284 20.2683H30.209V29.1388C30.209 29.1388 30.2098 29.138 30.2106 29.1372V37.5307C31.2073 36.9359 32.1581 36.2507 33.0491 35.4791L33.5632 35.0191V20.2683H30.3284Z" fill="#E6E6FF"/>
<path d="M30.2106 29.137C30.2106 29.137 30.2106 29.1378 30.209 29.1386V35.4789H30.2106V29.137Z" fill="#E6E6FF"/>
<path d="M33.5635 20.2683V35.0191C33.5635 35.0191 33.5675 35.015 33.5699 35.0126V20.2683H33.5635Z" fill="#E6E6FF"/>
<path d="M33.5699 20.011H33.5635V20.2684H33.5699V20.2701L36.7223 20.2676H33.5699V20.011Z" fill="#E6E6FF"/>
<path d="M19.9477 40.2991V28.1011H16.6411V40.3491H19.9348V40.2991C19.9388 40.2991 19.9436 40.2999 19.9477 40.2991Z" fill="#E6E6FF"/>
<path d="M19.948 30.678V40.2991C19.948 40.2991 19.9391 40.2991 19.9351 40.2991V40.3491H19.9867V28.1011H19.948V30.678Z" fill="#E6E6FF"/>
<path d="M16.641 36.7383V33.4842V30.1163V28.1011H16.6313V30.1131V33.4818V36.7367V40.0223V40.3491H16.641V40.0239V36.7383Z" fill="#E6E6FF"/>
<path d="M36.7231 20.2673C36.724 20.2862 36.724 20.306 36.724 20.3249V20.2673H36.7231Z" fill="#E6E6FF"/>
<path d="M36.709 21.0239V31.2454C36.7138 31.2382 36.7187 31.2301 36.7235 31.2228V20.3242C36.7235 20.5583 36.7187 20.7915 36.709 21.0239Z" fill="#E6E6FF"/>
</svg>