<svg width="102" height="118" viewBox="0 0 102 118" fill="none" xmlns="http://www.w3.org/2000/svg">
<path fill-rule="evenodd" clip-rule="evenodd" d="M101.697 0.228519L50.9077 0.228517L38.2104 0.228516L27.8274 0.228516C12.6258 0.228515 0.302494 12.5518 0.302493 27.7534L101.697 27.7534V0.228519ZM0.303165 90.6773L0.303165 90.4419C0.302715 90.377 0.30249 90.312 0.30249 90.247H0.303165L0.30317 33.8468L27.9355 33.8468L27.9355 55.0937L27.9355 62.2105L27.9355 86.6058L60.0882 54.453H34.0255L34.0255 33.8354H59.3257H67.8L101.697 33.8354L101.697 33.8357L101.697 51.8029V54.453V57.821V81.8936H80.9993L80.9993 62.8134L69.0872 74.7255L63.2313 80.5815L53.5657 90.247H101.697V117.772L27.8274 117.772C12.7695 117.772 0.535693 105.68 0.305785 90.6773H0.303165Z" fill="url(#paint0_radial_3_1215)"/>
<defs>
<radialGradient id="paint0_radial_3_1215" cx="0" cy="0" r="1" gradientUnits="userSpaceOnUse" gradientTransform="translate(69.2611 59.0002) rotate(-53.7286) scale(72.8974 140.12)">
<stop stop-color="#87F1FF"/>
<stop offset="0.220781" stop-color="#69EDF5"/>
<stop offset="0.445781" stop-color="#00B2FF"/>
<stop offset="1" stop-color="#1235ED"/>
</radialGradient>
</defs>
</svg>
