<svg width="537" height="138" viewBox="0 0 537 138" fill="none" xmlns="http://www.w3.org/2000/svg">
<g clip-path="url(#clip0_226_1433)">
<g opacity="0.4">
<mask id="path-1-outside-1_226_1433" maskUnits="userSpaceOnUse" x="104.64" y="98.001" width="44" height="41" fill="black">
<rect fill="white" x="104.64" y="98.001" width="44" height="41"/>
<path fill-rule="evenodd" clip-rule="evenodd" d="M128.966 99.001L147.514 99.001L147.514 99.0013L147.514 110.283V110.655V114.559V130.173L136.188 130.173L136.188 114.858L129.67 121.376L126.466 124.58L113.649 137.397L105.64 129.389L124.746 110.283L110.484 110.283L110.484 99.001L124.329 99.001L128.966 99.001Z"/>
</mask>
<path d="M147.514 99.001L148.174 98.9926L148.166 98.3404L147.514 98.3404V99.001ZM128.966 99.001V98.3404V99.001ZM147.514 99.0013L148.175 99.0013L148.174 98.9929L147.514 99.0013ZM147.514 110.283H146.853H147.514ZM147.514 130.173V130.834H148.175V130.173H147.514ZM136.188 130.173H135.528V130.834H136.188V130.173ZM136.188 114.858H136.849V113.263L135.721 114.391L136.188 114.858ZM129.67 121.376L129.203 120.909L129.67 121.376ZM126.466 124.58L126.933 125.047L126.466 124.58ZM113.649 137.397L113.182 137.865L113.649 138.332L114.116 137.865L113.649 137.397ZM105.64 129.389L105.173 128.922L104.706 129.389L105.173 129.856L105.64 129.389ZM124.746 110.283L125.213 110.75L126.341 109.622H124.746V110.283ZM110.484 110.283H109.824V110.943H110.484V110.283ZM110.484 99.001V98.3404H109.824V99.001L110.484 99.001ZM124.329 99.001V99.6616V99.001ZM147.514 98.3404L128.966 98.3404V99.6616L147.514 99.6616V98.3404ZM148.174 98.9929L148.174 98.9926L146.853 99.0094L146.853 99.0097L148.174 98.9929ZM148.175 110.283L148.175 99.0013L146.853 99.0013L146.853 110.283L148.175 110.283ZM148.175 110.655V110.283H146.853V110.655H148.175ZM148.175 114.559V110.655H146.853V114.559H148.175ZM148.175 130.173V114.559H146.853V130.173H148.175ZM136.188 130.834L147.514 130.834V129.513L136.188 129.513L136.188 130.834ZM135.528 114.858L135.528 130.173H136.849L136.849 114.858H135.528ZM135.721 114.391L129.203 120.909L130.138 121.843L136.655 115.325L135.721 114.391ZM129.203 120.909L125.999 124.113L126.933 125.047L130.138 121.843L129.203 120.909ZM125.999 124.113L113.182 136.93L114.116 137.865L126.933 125.047L125.999 124.113ZM114.116 136.93L106.107 128.922L105.173 129.856L113.182 137.865L114.116 136.93ZM106.107 129.856L125.213 110.75L124.279 109.816L105.173 128.922L106.107 129.856ZM110.484 110.943L124.746 110.943V109.622L110.484 109.622V110.943ZM109.824 99.001L109.824 110.283H111.145L111.145 99.001L109.824 99.001ZM124.329 98.3404L110.484 98.3404V99.6616L124.329 99.6616V98.3404ZM128.966 98.3404L124.329 98.3404V99.6616L128.966 99.6616V98.3404Z" fill="url(#paint0_linear_226_1433)" mask="url(#path-1-outside-1_226_1433)"/>
<mask id="path-3-outside-2_226_1433" maskUnits="userSpaceOnUse" x="157.373" y="48.7448" width="44" height="41" fill="black">
<rect fill="white" x="157.373" y="48.7448" width="44" height="41"/>
<path fill-rule="evenodd" clip-rule="evenodd" d="M200.248 65.3026V80.917L188.922 80.917L188.922 65.6011L182.404 72.1193L179.199 75.3236L166.382 88.141L158.373 80.1325L177.479 61.0269L163.218 61.0269L163.218 49.7451L177.062 49.7451L181.699 49.7451L188.922 49.7451V49.7448L200.248 49.7448L200.248 61.399V65.3026Z"/>
</mask>
<path d="M200.248 80.917V81.5776H200.908V80.917H200.248ZM188.922 80.917H188.261V81.5776L188.922 81.5776V80.917ZM188.922 65.6011H189.582V64.0062L188.455 65.134L188.922 65.6011ZM182.404 72.1193L181.936 71.6522L182.404 72.1193ZM179.199 75.3236L179.666 75.7908L179.199 75.3236ZM166.382 88.141L165.915 88.6081L166.382 89.0753L166.849 88.6081L166.382 88.141ZM158.373 80.1325L157.906 79.6653L157.439 80.1325L157.906 80.5996L158.373 80.1325ZM177.479 61.0269L177.946 61.494L179.074 60.3662H177.479V61.0269ZM163.218 61.0269H162.557V61.6875H163.218V61.0269ZM163.218 49.7451V49.0845H162.557V49.7451L163.218 49.7451ZM177.062 49.7451V50.4057V49.7451ZM181.699 49.7451V49.0845V49.7451ZM188.922 49.7451V50.4057H189.582V49.7451H188.922ZM188.922 49.7448V49.0841L188.261 49.0841V49.7448H188.922ZM200.248 49.7448L200.908 49.7448V49.0841L200.248 49.0841V49.7448ZM200.248 61.399H199.587H200.248ZM200.908 80.917V65.3026H199.587V80.917H200.908ZM188.922 81.5776L200.248 81.5776V80.2564L188.922 80.2564L188.922 81.5776ZM188.261 65.6011L188.261 80.917H189.582L189.582 65.6011H188.261ZM188.455 65.134L181.936 71.6522L182.871 72.5864L189.389 66.0682L188.455 65.134ZM181.936 71.6522L178.732 74.8565L179.666 75.7908L182.871 72.5864L181.936 71.6522ZM178.732 74.8565L165.915 87.6739L166.849 88.6081L179.666 75.7908L178.732 74.8565ZM166.849 87.6739L158.84 79.6653L157.906 80.5996L165.915 88.6081L166.849 87.6739ZM158.84 80.5996L177.946 61.494L177.012 60.5597L157.906 79.6653L158.84 80.5996ZM163.218 61.6875L177.479 61.6875V60.3662L163.218 60.3662V61.6875ZM162.557 49.7451L162.557 61.0269H163.878L163.878 49.7451L162.557 49.7451ZM177.062 49.0845L163.218 49.0845V50.4057L177.062 50.4057V49.0845ZM181.699 49.0845L177.062 49.0845V50.4057L181.699 50.4057V49.0845ZM188.922 49.0845L181.699 49.0845V50.4057L188.922 50.4057V49.0845ZM188.261 49.7448V49.7451H189.582V49.7448H188.261ZM200.248 49.0841L188.922 49.0841V50.4054L200.248 50.4054V49.0841ZM200.908 61.399L200.908 49.7448L199.587 49.7448L199.587 61.399L200.908 61.399ZM200.908 65.3026V61.399H199.587V65.3026H200.908Z" fill="url(#paint1_linear_226_1433)" mask="url(#path-3-outside-2_226_1433)"/>
<mask id="path-5-outside-3_226_1433" maskUnits="userSpaceOnUse" x="210.108" y="-0.510742" width="44" height="41" fill="black">
<rect fill="white" x="210.108" y="-0.510742" width="44" height="41"/>
<path fill-rule="evenodd" clip-rule="evenodd" d="M234.433 0.489259L252.982 0.489259V0.489398L252.982 0.489398L252.982 12.1436V16.0472V31.6616L241.656 31.6616L241.656 16.3454L235.138 22.8638L231.934 26.0681L219.116 38.8855L211.108 30.877L230.214 11.771L215.952 11.771L215.952 0.489258L229.796 0.489258L234.433 0.489259Z"/>
</mask>
<path d="M252.982 0.489259L253.642 0.489259V-0.171357L252.982 -0.171357V0.489259ZM234.433 0.489259V1.14988V0.489259ZM252.982 0.489398L252.321 0.489398V1.15001L252.982 1.15001V0.489398ZM252.982 0.489398L253.643 0.489398V-0.171218L252.982 -0.171218V0.489398ZM252.982 12.1436L252.322 12.1436V12.1436H252.982ZM252.982 31.6616V32.3222H253.643V31.6616H252.982ZM241.656 31.6616H240.996V32.3222H241.656V31.6616ZM241.656 16.3454H242.317V14.7505L241.189 15.8783L241.656 16.3454ZM235.138 22.8638L234.671 22.3967L235.138 22.8638ZM231.934 26.0681L232.401 26.5353L231.934 26.0681ZM219.116 38.8855L218.649 39.3526L219.116 39.8197L219.583 39.3526L219.116 38.8855ZM211.108 30.877L210.641 30.4098L210.174 30.877L210.641 31.3441L211.108 30.877ZM230.214 11.771L230.681 12.2382L231.809 11.1104H230.214V11.771ZM215.952 11.771H215.292V12.4316H215.952V11.771ZM215.952 0.489258V-0.171359H215.292V0.489258L215.952 0.489258ZM229.796 0.489258V-0.171358V0.489258ZM252.982 -0.171357L234.433 -0.171358V1.14988L252.982 1.14988V-0.171357ZM253.642 0.489398V0.489259L252.321 0.489259V0.489398L253.642 0.489398ZM252.982 -0.171218H252.982V1.15001H252.982V-0.171218ZM253.643 12.1436L253.643 0.489398L252.322 0.489398L252.322 12.1436L253.643 12.1436ZM253.643 16.0472V12.1436H252.322V16.0472H253.643ZM253.643 31.6616V16.0472H252.322V31.6616H253.643ZM241.656 32.3222L252.982 32.3222V31.001L241.656 31.001V32.3222ZM240.996 16.3454L240.996 31.6616H242.317L242.317 16.3454L240.996 16.3454ZM241.189 15.8783L234.671 22.3967L235.605 23.3309L242.124 16.8125L241.189 15.8783ZM234.671 22.3967L231.467 25.601L232.401 26.5353L235.605 23.3309L234.671 22.3967ZM231.467 25.601L218.649 38.4184L219.583 39.3526L232.401 26.5353L231.467 25.601ZM219.583 38.4184L211.575 30.4098L210.641 31.3441L218.649 39.3526L219.583 38.4184ZM211.575 31.3441L230.681 12.2382L229.747 11.3039L210.641 30.4098L211.575 31.3441ZM215.952 12.4316L230.214 12.4316V11.1104L215.952 11.1104V12.4316ZM215.292 0.489258L215.292 11.771H216.613L216.613 0.489258L215.292 0.489258ZM229.796 -0.171358L215.952 -0.171359V1.14987L229.796 1.14987V-0.171358ZM234.433 -0.171358L229.796 -0.171358V1.14987L234.433 1.14988V-0.171358Z" fill="url(#paint2_linear_226_1433)" mask="url(#path-5-outside-3_226_1433)"/>
</g>
<g opacity="0.4">
<mask id="path-7-outside-4_226_1433" maskUnits="userSpaceOnUse" x="-0.828156" y="98.001" width="44" height="41" fill="black">
<rect fill="white" x="-0.828156" y="98.001" width="44" height="41"/>
<path fill-rule="evenodd" clip-rule="evenodd" d="M23.4972 99.001L42.0455 99.001L42.0455 99.0013L42.0455 110.283V110.655V114.559V130.173L30.7197 130.173L30.7197 114.858L24.2021 121.376L20.9977 124.58L8.18038 137.397L0.171844 129.389L19.2779 110.283L5.01611 110.283L5.01611 99.001L18.8601 99.001L23.4972 99.001Z"/>
</mask>
<path d="M42.0455 99.001L42.7061 98.9926L42.6978 98.3404L42.0455 98.3404V99.001ZM23.4972 99.001V98.3404V99.001ZM42.0455 99.0013L42.7062 99.0013L42.7061 98.9929L42.0455 99.0013ZM42.0455 110.283H41.3849H42.0455ZM42.0455 130.173V130.834H42.7061V130.173H42.0455ZM30.7197 130.173H30.0591V130.834H30.7197V130.173ZM30.7197 114.858H31.3804V113.263L30.2526 114.391L30.7197 114.858ZM24.2021 121.376L23.735 120.909L24.2021 121.376ZM20.9977 124.58L21.4649 125.047L20.9977 124.58ZM8.18038 137.397L7.71325 137.865L8.18038 138.332L8.64751 137.865L8.18038 137.397ZM0.171844 129.389L-0.295282 128.922L-0.762408 129.389L-0.295282 129.856L0.171844 129.389ZM19.2779 110.283L19.7451 110.75L20.8728 109.622H19.2779V110.283ZM5.01611 110.283H4.35549V110.943H5.01611V110.283ZM5.01611 99.001V98.3404H4.35549V99.001L5.01611 99.001ZM18.8601 99.001V99.6616V99.001ZM42.0455 98.3404L23.4972 98.3404V99.6616L42.0455 99.6616V98.3404ZM42.7061 98.9929L42.7061 98.9926L41.385 99.0094L41.385 99.0097L42.7061 98.9929ZM42.7061 110.283L42.7061 99.0013L41.3849 99.0013L41.3849 110.283L42.7061 110.283ZM42.7061 110.655V110.283H41.3849V110.655H42.7061ZM42.7061 114.559V110.655H41.3849V114.559H42.7061ZM42.7061 130.173V114.559H41.3849V130.173H42.7061ZM30.7197 130.834L42.0455 130.834V129.513L30.7197 129.513L30.7197 130.834ZM30.0591 114.858L30.0591 130.173H31.3804L31.3804 114.858H30.0591ZM30.2526 114.391L23.735 120.909L24.6692 121.843L31.1869 115.325L30.2526 114.391ZM23.735 120.909L20.5306 124.113L21.4649 125.047L24.6692 121.843L23.735 120.909ZM20.5306 124.113L7.71325 136.93L8.64751 137.865L21.4649 125.047L20.5306 124.113ZM8.64751 136.93L0.638971 128.922L-0.295282 129.856L7.71325 137.865L8.64751 136.93ZM0.638971 129.856L19.7451 110.75L18.8108 109.816L-0.295282 128.922L0.638971 129.856ZM5.01611 110.943L19.2779 110.943V109.622L5.01611 109.622V110.943ZM4.35549 99.001L4.35549 110.283H5.67672L5.67672 99.001L4.35549 99.001ZM18.8601 98.3404L5.01611 98.3404V99.6616L18.8601 99.6616V98.3404ZM23.4972 98.3404L18.8601 98.3404V99.6616L23.4972 99.6616V98.3404Z" fill="url(#paint3_linear_226_1433)" mask="url(#path-7-outside-4_226_1433)"/>
<mask id="path-9-outside-5_226_1433" maskUnits="userSpaceOnUse" x="51.905" y="48.7448" width="44" height="41" fill="black">
<rect fill="white" x="51.905" y="48.7448" width="44" height="41"/>
<path fill-rule="evenodd" clip-rule="evenodd" d="M94.7792 65.3026V80.917L83.4534 80.917L83.4534 65.6011L76.9352 72.1193L73.7309 75.3236L60.9135 88.141L52.905 80.1325L72.0106 61.0269L57.7495 61.0269L57.7495 49.7451L71.5935 49.7451L76.2306 49.7451L83.4534 49.7451V49.7448L94.7792 49.7448L94.7792 61.399V65.3026Z"/>
</mask>
<path d="M94.7792 80.917V81.5776H95.4398V80.917H94.7792ZM83.4534 80.917H82.7928V81.5776L83.4534 81.5776V80.917ZM83.4534 65.6011H84.114V64.0062L82.9863 65.134L83.4534 65.6011ZM76.9352 72.1193L76.4681 71.6522L76.9352 72.1193ZM73.7309 75.3236L74.198 75.7908L73.7309 75.3236ZM60.9135 88.141L60.4464 88.6081L60.9135 89.0753L61.3806 88.6081L60.9135 88.141ZM52.905 80.1325L52.4378 79.6653L51.9707 80.1325L52.4378 80.5996L52.905 80.1325ZM72.0106 61.0269L72.4777 61.494L73.6054 60.3662H72.0106V61.0269ZM57.7495 61.0269H57.0888V61.6875H57.7495V61.0269ZM57.7495 49.7451V49.0845H57.0888V49.7451L57.7495 49.7451ZM71.5935 49.7451V50.4057V49.7451ZM76.2306 49.7451V49.0845V49.7451ZM83.4534 49.7451V50.4057H84.114V49.7451H83.4534ZM83.4534 49.7448V49.0841L82.7928 49.0841V49.7448H83.4534ZM94.7792 49.7448L95.4398 49.7448V49.0841L94.7792 49.0841V49.7448ZM94.7792 61.399H94.1186H94.7792ZM95.4398 80.917V65.3026H94.1186V80.917H95.4398ZM83.4534 81.5776L94.7792 81.5776V80.2564L83.4534 80.2564L83.4534 81.5776ZM82.7928 65.6011L82.7928 80.917H84.114L84.114 65.6011H82.7928ZM82.9863 65.134L76.4681 71.6522L77.4023 72.5864L83.9205 66.0682L82.9863 65.134ZM76.4681 71.6522L73.2637 74.8565L74.198 75.7908L77.4023 72.5864L76.4681 71.6522ZM73.2637 74.8565L60.4464 87.6739L61.3806 88.6081L74.198 75.7908L73.2637 74.8565ZM61.3806 87.6739L53.3721 79.6653L52.4378 80.5996L60.4464 88.6081L61.3806 87.6739ZM53.3721 80.5996L72.4777 61.494L71.5434 60.5597L52.4378 79.6653L53.3721 80.5996ZM57.7495 61.6875L72.0106 61.6875V60.3662L57.7495 60.3662V61.6875ZM57.0888 49.7451L57.0888 61.0269H58.4101L58.4101 49.7451L57.0888 49.7451ZM71.5935 49.0845L57.7495 49.0845V50.4057L71.5935 50.4057V49.0845ZM76.2306 49.0845L71.5935 49.0845V50.4057L76.2306 50.4057V49.0845ZM83.4534 49.0845L76.2306 49.0845V50.4057L83.4534 50.4057V49.0845ZM82.7928 49.7448V49.7451H84.114V49.7448H82.7928ZM94.7792 49.0841L83.4534 49.0841V50.4054L94.7792 50.4054V49.0841ZM95.4398 61.399L95.4398 49.7448L94.1186 49.7448L94.1186 61.399L95.4398 61.399ZM95.4398 65.3026V61.399H94.1186V65.3026H95.4398Z" fill="url(#paint4_linear_226_1433)" mask="url(#path-9-outside-5_226_1433)"/>
<mask id="path-11-outside-6_226_1433" maskUnits="userSpaceOnUse" x="104.639" y="-0.510742" width="44" height="41" fill="black">
<rect fill="white" x="104.639" y="-0.510742" width="44" height="41"/>
<path fill-rule="evenodd" clip-rule="evenodd" d="M128.965 0.489259L147.513 0.489259V0.489398L147.514 0.489398L147.514 12.1436V16.0472V31.6616L136.188 31.6616L136.188 16.3454L129.67 22.8638L126.465 26.0681L113.648 38.8855L105.639 30.877L124.745 11.771L110.484 11.771L110.484 0.489258L124.328 0.489258L128.965 0.489259Z"/>
</mask>
<path d="M147.513 0.489259L148.174 0.489259V-0.171357L147.513 -0.171357V0.489259ZM128.965 0.489259V1.14988V0.489259ZM147.513 0.489398L146.853 0.489398V1.15001L147.513 1.15001V0.489398ZM147.514 0.489398L148.174 0.489398V-0.171218L147.514 -0.171218V0.489398ZM147.514 12.1436L146.853 12.1436V12.1436H147.514ZM147.514 31.6616V32.3222H148.174V31.6616H147.514ZM136.188 31.6616H135.527V32.3222H136.188V31.6616ZM136.188 16.3454H136.849V14.7505L135.721 15.8783L136.188 16.3454ZM129.67 22.8638L129.203 22.3967L129.67 22.8638ZM126.465 26.0681L126.932 26.5353L126.465 26.0681ZM113.648 38.8855L113.181 39.3526L113.648 39.8197L114.115 39.3526L113.648 38.8855ZM105.639 30.877L105.172 30.4098L104.705 30.877L105.172 31.3441L105.639 30.877ZM124.745 11.771L125.212 12.2382L126.34 11.1104H124.745V11.771ZM110.484 11.771H109.823V12.4316H110.484V11.771ZM110.484 0.489258V-0.171359H109.823V0.489258L110.484 0.489258ZM124.328 0.489258V-0.171358V0.489258ZM147.513 -0.171357L128.965 -0.171358V1.14988L147.513 1.14988V-0.171357ZM148.174 0.489398V0.489259L146.853 0.489259V0.489398L148.174 0.489398ZM147.514 -0.171218H147.513V1.15001H147.514V-0.171218ZM148.174 12.1436L148.174 0.489398L146.853 0.489398L146.853 12.1436L148.174 12.1436ZM148.174 16.0472V12.1436H146.853V16.0472H148.174ZM148.174 31.6616V16.0472H146.853V31.6616H148.174ZM136.188 32.3222L147.514 32.3222V31.001L136.188 31.001V32.3222ZM135.527 16.3454L135.527 31.6616H136.849L136.849 16.3454L135.527 16.3454ZM135.721 15.8783L129.203 22.3967L130.137 23.3309L136.655 16.8125L135.721 15.8783ZM129.203 22.3967L125.998 25.601L126.932 26.5353L130.137 23.3309L129.203 22.3967ZM125.998 25.601L113.181 38.4184L114.115 39.3526L126.932 26.5353L125.998 25.601ZM114.115 38.4184L106.107 30.4098L105.172 31.3441L113.181 39.3526L114.115 38.4184ZM106.107 31.3441L125.212 12.2382L124.278 11.3039L105.172 30.4098L106.107 31.3441ZM110.484 12.4316L124.745 12.4316V11.1104L110.484 11.1104V12.4316ZM109.823 0.489258L109.823 11.771H111.144L111.144 0.489258L109.823 0.489258ZM124.328 -0.171358L110.484 -0.171359V1.14987L124.328 1.14987V-0.171358ZM128.965 -0.171358L124.328 -0.171358V1.14987L128.965 1.14988V-0.171358Z" fill="url(#paint5_linear_226_1433)" mask="url(#path-11-outside-6_226_1433)"/>
</g>
<g opacity="0.4">
<mask id="path-13-outside-7_226_1433" maskUnits="userSpaceOnUse" x="199.248" y="98.001" width="44" height="41" fill="black">
<rect fill="white" x="199.248" y="98.001" width="44" height="41"/>
<path fill-rule="evenodd" clip-rule="evenodd" d="M223.573 99.001L242.121 99.001L242.121 99.0013L242.121 110.283V110.655V114.559V130.173L230.796 130.173L230.796 114.858L224.278 121.376L221.074 124.58L208.256 137.397L200.248 129.389L219.354 110.283L205.092 110.283L205.092 99.001L218.936 99.001L223.573 99.001Z"/>
</mask>
<path d="M242.121 99.001L242.782 98.9926L242.774 98.3404L242.121 98.3404V99.001ZM223.573 99.001V98.3404V99.001ZM242.121 99.0013L242.782 99.0013L242.782 98.9929L242.121 99.0013ZM242.121 110.283H241.461H242.121ZM242.121 130.173V130.834H242.782V130.173H242.121ZM230.796 130.173H230.135V130.834H230.796V130.173ZM230.796 114.858H231.456V113.263L230.328 114.391L230.796 114.858ZM221.074 124.58L221.541 125.047V125.047L221.074 124.58ZM208.256 137.397L207.789 137.865L208.256 138.332L208.723 137.865L208.256 137.397ZM200.248 129.389L199.781 128.922L199.313 129.389L199.781 129.856L200.248 129.389ZM219.354 110.283L219.821 110.75L220.949 109.622H219.354V110.283ZM205.092 110.283H204.431V110.943H205.092V110.283ZM205.092 99.001V98.3404H204.431V99.001L205.092 99.001ZM218.936 99.001V99.6616V99.001ZM242.121 98.3404L223.573 98.3404V99.6616L242.121 99.6616V98.3404ZM242.782 98.9929L242.782 98.9926L241.461 99.0094L241.461 99.0097L242.782 98.9929ZM242.782 110.283L242.782 99.0013L241.461 99.0013L241.461 110.283L242.782 110.283ZM242.782 110.655V110.283H241.461V110.655H242.782ZM242.782 114.559V110.655H241.461V114.559H242.782ZM242.782 130.173V114.559H241.461V130.173H242.782ZM230.796 130.834L242.121 130.834L242.121 129.513L230.796 129.513V130.834ZM230.135 114.858L230.135 130.173H231.456L231.456 114.858H230.135ZM230.328 114.391L223.811 120.909L224.745 121.843L231.263 115.325L230.328 114.391ZM223.811 120.909L220.606 124.113L221.541 125.047L224.745 121.843L223.811 120.909ZM220.606 124.113L207.789 136.93L208.723 137.865L221.541 125.047L220.606 124.113ZM208.723 136.93L200.715 128.922L199.781 129.856L207.789 137.865L208.723 136.93ZM200.715 129.856L219.821 110.75L218.887 109.816L199.781 128.922L200.715 129.856ZM205.092 110.943L219.354 110.943V109.622L205.092 109.622V110.943ZM204.431 99.001L204.431 110.283H205.753L205.753 99.001L204.431 99.001ZM218.936 98.3404L205.092 98.3404V99.6616L218.936 99.6616V98.3404ZM223.573 98.3404L218.936 98.3404V99.6616L223.573 99.6616V98.3404Z" fill="url(#paint6_linear_226_1433)" mask="url(#path-13-outside-7_226_1433)"/>
<mask id="path-15-outside-8_226_1433" maskUnits="userSpaceOnUse" x="251.981" y="48.7448" width="44" height="41" fill="black">
<rect fill="white" x="251.981" y="48.7448" width="44" height="41"/>
<path fill-rule="evenodd" clip-rule="evenodd" d="M294.855 65.3026V80.917L283.529 80.917L283.529 65.6011L277.011 72.1193L273.807 75.3236L260.989 88.141L252.981 80.1325L272.086 61.0269L257.825 61.0269L257.825 49.7451L271.669 49.7451L276.306 49.7451L283.529 49.7451V49.7448L294.855 49.7448L294.855 61.399V65.3026Z"/>
</mask>
<path d="M294.855 80.917V81.5776H295.516V80.917H294.855ZM283.529 80.917H282.869V81.5776L283.529 81.5776V80.917ZM283.529 65.6011H284.19V64.0062L283.062 65.134L283.529 65.6011ZM277.011 72.1193L276.544 71.6522L277.011 72.1193ZM273.807 75.3236L274.274 75.7908L273.807 75.3236ZM260.989 88.141L260.522 88.6081L260.989 89.0753L261.456 88.6081L260.989 88.141ZM252.981 80.1325L252.514 79.6653L252.047 80.1325L252.514 80.5996L252.981 80.1325ZM272.086 61.0269L272.554 61.494L273.681 60.3662H272.086V61.0269ZM257.825 61.0269H257.165V61.6875H257.825V61.0269ZM257.825 49.7451V49.0845H257.165V49.7451L257.825 49.7451ZM271.669 49.7451V50.4057V49.7451ZM276.306 49.7451V49.0845V49.7451ZM283.529 49.7451V50.4057H284.19V49.7451H283.529ZM283.529 49.7448V49.0841L282.869 49.0841V49.7448H283.529ZM294.855 49.7448L295.516 49.7448V49.0841L294.855 49.0841V49.7448ZM294.855 61.399H294.194H294.855ZM295.516 80.917V65.3026H294.194V80.917H295.516ZM283.529 81.5776L294.855 81.5776V80.2564L283.529 80.2564L283.529 81.5776ZM282.869 65.6011L282.869 80.917H284.19L284.19 65.6011H282.869ZM283.062 65.134L276.544 71.6522L277.478 72.5864L283.996 66.0682L283.062 65.134ZM276.544 71.6522L273.34 74.8565L274.274 75.7908L277.478 72.5864L276.544 71.6522ZM273.34 74.8565L260.522 87.6739L261.456 88.6081L274.274 75.7908L273.34 74.8565ZM261.456 87.6739L253.448 79.6653L252.514 80.5996L260.522 88.6081L261.456 87.6739ZM253.448 80.5996L272.554 61.494L271.619 60.5597L252.514 79.6653L253.448 80.5996ZM257.825 61.6875L272.086 61.6875V60.3662L257.825 60.3662V61.6875ZM257.165 49.7451L257.165 61.0269H258.486L258.486 49.7451L257.165 49.7451ZM271.669 49.0845L257.825 49.0845V50.4057L271.669 50.4057V49.0845ZM276.306 49.0845L271.669 49.0845V50.4057L276.306 50.4057V49.0845ZM283.529 49.0845L276.306 49.0845V50.4057L283.529 50.4057V49.0845ZM282.869 49.7448V49.7451H284.19V49.7448H282.869ZM294.855 49.0841L283.529 49.0841V50.4054L294.855 50.4054V49.0841ZM295.516 61.399L295.516 49.7448L294.194 49.7448L294.194 61.399L295.516 61.399ZM295.516 65.3026V61.399H294.194V65.3026H295.516Z" fill="url(#paint7_linear_226_1433)" mask="url(#path-15-outside-8_226_1433)"/>
<mask id="path-17-outside-9_226_1433" maskUnits="userSpaceOnUse" x="304.715" y="-0.510742" width="44" height="41" fill="black">
<rect fill="white" x="304.715" y="-0.510742" width="44" height="41"/>
<path fill-rule="evenodd" clip-rule="evenodd" d="M329.041 0.489259L347.589 0.489259V0.489398L347.59 0.489398L347.59 12.1436V16.0472V31.6616L336.264 31.6616L336.264 16.3454L329.746 22.8638L326.541 26.0681L313.724 38.8855L305.715 30.877L324.821 11.771L310.56 11.771L310.56 0.489258L324.404 0.489258L329.041 0.489259Z"/>
</mask>
<path d="M347.589 0.489259L348.25 0.489259V-0.171357L347.589 -0.171357V0.489259ZM329.041 0.489259V1.14988V0.489259ZM347.589 0.489398L346.928 0.489398V1.15001L347.589 1.15001V0.489398ZM347.59 0.489398L348.25 0.489398V-0.171218L347.59 -0.171218V0.489398ZM347.59 12.1436L346.929 12.1436V12.1436H347.59ZM347.59 31.6616V32.3222H348.25V31.6616H347.59ZM336.264 31.6616H335.603V32.3222H336.264V31.6616ZM336.264 16.3454H336.925V14.7505L335.797 15.8783L336.264 16.3454ZM329.746 22.8638L329.278 22.3967L329.746 22.8638ZM326.541 26.0681L327.008 26.5353L326.541 26.0681ZM313.724 38.8855L313.257 39.3526L313.724 39.8197L314.191 39.3526L313.724 38.8855ZM305.715 30.877L305.248 30.4098L304.781 30.877L305.248 31.3441L305.715 30.877ZM324.821 11.771L325.288 12.2382L326.416 11.1104H324.821V11.771ZM310.56 11.771H309.899V12.4316H310.56V11.771ZM310.56 0.489258V-0.171359H309.899V0.489258L310.56 0.489258ZM324.404 0.489258V-0.171358V0.489258ZM347.589 -0.171357L329.041 -0.171358V1.14988L347.589 1.14988V-0.171357ZM348.25 0.489398V0.489259L346.928 0.489259V0.489398L348.25 0.489398ZM347.59 -0.171218H347.589V1.15001H347.59V-0.171218ZM348.25 12.1436L348.25 0.489398L346.929 0.489398L346.929 12.1436L348.25 12.1436ZM348.25 16.0472V12.1436H346.929V16.0472H348.25ZM348.25 31.6616V16.0472H346.929V31.6616H348.25ZM336.264 32.3222L347.59 32.3222V31.001L336.264 31.001L336.264 32.3222ZM335.603 16.3454L335.603 31.6616H336.925L336.925 16.3454L335.603 16.3454ZM335.797 15.8783L329.278 22.3967L330.213 23.3309L336.731 16.8125L335.797 15.8783ZM329.278 22.3967L326.074 25.601L327.008 26.5353L330.213 23.3309L329.278 22.3967ZM326.074 25.601L313.257 38.4184L314.191 39.3526L327.008 26.5353L326.074 25.601ZM314.191 38.4184L306.182 30.4098L305.248 31.3441L313.257 39.3526L314.191 38.4184ZM306.182 31.3441L325.288 12.2382L324.354 11.3039L305.248 30.4098L306.182 31.3441ZM310.56 12.4316L324.821 12.4316V11.1104L310.56 11.1104V12.4316ZM309.899 0.489258L309.899 11.771H311.22L311.22 0.489258L309.899 0.489258ZM324.404 -0.171358L310.56 -0.171359V1.14987L324.404 1.14987V-0.171358ZM329.041 -0.171358L324.404 -0.171358V1.14987L329.041 1.14988V-0.171358Z" fill="url(#paint8_linear_226_1433)" mask="url(#path-17-outside-9_226_1433)"/>
</g>
<g opacity="0.4">
<mask id="path-19-outside-10_226_1433" maskUnits="userSpaceOnUse" x="293.855" y="98.001" width="44" height="41" fill="black">
<rect fill="white" x="293.855" y="98.001" width="44" height="41"/>
<path fill-rule="evenodd" clip-rule="evenodd" d="M318.181 99.001L336.729 99.001L336.729 99.0013L336.729 110.283V110.655V114.559V130.173L325.403 130.173L325.403 114.858L318.885 121.376L315.681 124.58L302.864 137.397L294.855 129.389L313.961 110.283L299.699 110.283L299.699 99.001L313.543 99.001L318.181 99.001Z"/>
</mask>
<path d="M336.729 99.001L337.389 98.9926L337.381 98.3404L336.729 98.3404V99.001ZM318.181 99.001V98.3404V99.001ZM336.729 99.0013L337.39 99.0013L337.389 98.9929L336.729 99.0013ZM336.729 110.283H336.068H336.729ZM336.729 130.173V130.834H337.389V130.173H336.729ZM325.403 130.173H324.742V130.834H325.403V130.173ZM325.403 114.858H326.064V113.263L324.936 114.391L325.403 114.858ZM315.681 124.58L316.148 125.047V125.047L315.681 124.58ZM302.864 137.397L302.397 137.865L302.864 138.332L303.331 137.865L302.864 137.397ZM294.855 129.389L294.388 128.922L293.921 129.389L294.388 129.856L294.855 129.389ZM313.961 110.283L314.428 110.75L315.556 109.622H313.961V110.283ZM299.699 110.283H299.039V110.943H299.699V110.283ZM299.699 99.001V98.3404H299.039V99.001L299.699 99.001ZM313.543 99.001V99.6616V99.001ZM336.729 98.3404L318.181 98.3404V99.6616L336.729 99.6616V98.3404ZM337.389 98.9929L337.389 98.9926L336.068 99.0094L336.068 99.0097L337.389 98.9929ZM337.389 110.283L337.389 99.0013L336.068 99.0013L336.068 110.283L337.389 110.283ZM337.389 110.655V110.283H336.068V110.655H337.389ZM337.389 114.559V110.655H336.068V114.559H337.389ZM337.389 130.173V114.559H336.068V130.173H337.389ZM325.403 130.834L336.729 130.834L336.729 129.513L325.403 129.513V130.834ZM324.742 114.858L324.742 130.173H326.064L326.064 114.858H324.742ZM324.936 114.391L318.418 120.909L319.353 121.843L325.87 115.325L324.936 114.391ZM318.418 120.909L315.214 124.113L316.148 125.047L319.353 121.843L318.418 120.909ZM315.214 124.113L302.397 136.93L303.331 137.865L316.148 125.047L315.214 124.113ZM303.331 136.93L295.322 128.922L294.388 129.856L302.397 137.865L303.331 136.93ZM295.322 129.856L314.428 110.75L313.494 109.816L294.388 128.922L295.322 129.856ZM299.699 110.943L313.961 110.943V109.622L299.699 109.622V110.943ZM299.039 99.001L299.039 110.283H300.36L300.36 99.001L299.039 99.001ZM313.543 98.3404L299.699 98.3404V99.6616L313.543 99.6616V98.3404ZM318.181 98.3404L313.543 98.3404V99.6616L318.181 99.6616V98.3404Z" fill="url(#paint9_linear_226_1433)" mask="url(#path-19-outside-10_226_1433)"/>
<mask id="path-21-outside-11_226_1433" maskUnits="userSpaceOnUse" x="346.588" y="48.7448" width="44" height="41" fill="black">
<rect fill="white" x="346.588" y="48.7448" width="44" height="41"/>
<path fill-rule="evenodd" clip-rule="evenodd" d="M389.462 65.3026V80.917L378.137 80.917L378.137 65.6011L371.619 72.1193L368.414 75.3236L355.597 88.141L347.588 80.1325L366.694 61.0269L352.433 61.0269L352.433 49.7451L366.277 49.7451L370.914 49.7451L378.137 49.7451V49.7448L389.463 49.7448L389.462 61.399V65.3026Z"/>
</mask>
<path d="M389.462 80.917V81.5776H390.123V80.917H389.462ZM378.137 80.917H377.476V81.5776L378.137 81.5776V80.917ZM378.137 65.6011H378.797V64.0063L377.67 65.134L378.137 65.6011ZM371.619 72.1193L371.151 71.6522L371.619 72.1193ZM368.414 75.3236L368.881 75.7908L368.414 75.3236ZM355.597 88.141L355.13 88.6081L355.597 89.0753L356.064 88.6081L355.597 88.141ZM347.588 80.1325L347.121 79.6653L346.654 80.1325L347.121 80.5996L347.588 80.1325ZM366.694 61.0269L367.161 61.494L368.289 60.3662H366.694V61.0269ZM352.433 61.0269H351.772V61.6875H352.433V61.0269ZM352.433 49.7451V49.0845H351.772V49.7451L352.433 49.7451ZM366.277 49.7451V50.4057V49.7451ZM370.914 49.7451V49.0845V49.7451ZM378.137 49.7451V50.4057H378.797V49.7451H378.137ZM378.137 49.7448V49.0841L377.476 49.0841V49.7448H378.137ZM389.463 49.7448L390.123 49.7448V49.0841L389.463 49.0841V49.7448ZM389.462 61.399H388.802H389.462ZM390.123 80.917V65.3026H388.802V80.917H390.123ZM378.137 81.5776L389.462 81.5776V80.2564L378.137 80.2564L378.137 81.5776ZM377.476 65.6011L377.476 80.917H378.797L378.797 65.6011H377.476ZM377.67 65.134L371.151 71.6522L372.086 72.5864L378.604 66.0683L377.67 65.134ZM371.151 71.6522L367.947 74.8565L368.881 75.7908L372.086 72.5864L371.151 71.6522ZM367.947 74.8565L355.13 87.6739L356.064 88.6081L368.881 75.7908L367.947 74.8565ZM356.064 87.6739L348.055 79.6653L347.121 80.5996L355.13 88.6081L356.064 87.6739ZM348.055 80.5996L367.161 61.494L366.227 60.5597L347.121 79.6653L348.055 80.5996ZM352.433 61.6875L366.694 61.6875V60.3662L352.433 60.3662V61.6875ZM351.772 49.7451L351.772 61.0269H353.093L353.093 49.7451L351.772 49.7451ZM366.277 49.0845L352.433 49.0845V50.4057L366.277 50.4057V49.0845ZM370.914 49.0845L366.277 49.0845V50.4057L370.914 50.4057V49.0845ZM378.137 49.0845L370.914 49.0845V50.4057L378.137 50.4057V49.0845ZM377.476 49.7448V49.7451H378.797V49.7448H377.476ZM389.463 49.0841L378.137 49.0841V50.4054L389.463 50.4054V49.0841ZM390.123 61.399L390.123 49.7448L388.802 49.7448L388.802 61.399L390.123 61.399ZM390.123 65.3026V61.399H388.802V65.3026H390.123Z" fill="url(#paint10_linear_226_1433)" mask="url(#path-21-outside-11_226_1433)"/>
<mask id="path-23-outside-12_226_1433" maskUnits="userSpaceOnUse" x="399.323" y="-0.510742" width="44" height="41" fill="black">
<rect fill="white" x="399.323" y="-0.510742" width="44" height="41"/>
<path fill-rule="evenodd" clip-rule="evenodd" d="M423.648 0.489259L442.197 0.489259V0.489398L442.197 0.489398L442.197 12.1436V16.0472V31.6616L430.871 31.6616L430.871 16.3454L424.353 22.8638L421.149 26.0681L408.331 38.8855L400.323 30.877L419.429 11.771L405.167 11.771L405.167 0.489258L419.011 0.489258L423.648 0.489259Z"/>
</mask>
<path d="M442.197 0.489259L442.857 0.489259V-0.171357L442.197 -0.171357V0.489259ZM423.648 0.489259V1.14988V0.489259ZM442.197 0.489398L441.536 0.489398V1.15001L442.197 1.15001V0.489398ZM442.197 0.489398L442.858 0.489398V-0.171218L442.197 -0.171218V0.489398ZM442.197 12.1436L441.537 12.1436V12.1436H442.197ZM442.197 31.6616V32.3222H442.858V31.6616H442.197ZM430.871 31.6616H430.211V32.3222H430.871V31.6616ZM430.871 16.3454H431.532V14.7505L430.404 15.8783L430.871 16.3454ZM424.353 22.8638L423.886 22.3967L424.353 22.8638ZM421.149 26.0681L421.616 26.5353L421.149 26.0681ZM408.331 38.8855L407.864 39.3526L408.331 39.8197L408.798 39.3526L408.331 38.8855ZM400.323 30.877L399.856 30.4098L399.389 30.877L399.856 31.3441L400.323 30.877ZM419.429 11.771L419.896 12.2382L421.024 11.1104H419.429V11.771ZM405.167 11.771H404.507V12.4316H405.167V11.771ZM405.167 0.489258V-0.171359H404.507V0.489258L405.167 0.489258ZM419.011 0.489258V-0.171358V0.489258ZM442.197 -0.171357L423.648 -0.171358V1.14988L442.197 1.14988V-0.171357ZM442.857 0.489398V0.489259L441.536 0.489259V0.489398L442.857 0.489398ZM442.197 -0.171218H442.197V1.15001H442.197V-0.171218ZM442.858 12.1436L442.858 0.489398L441.537 0.489398L441.537 12.1436L442.858 12.1436ZM442.858 16.0472V12.1436H441.537V16.0472H442.858ZM442.858 31.6616V16.0472H441.537V31.6616H442.858ZM430.871 32.3222L442.197 32.3222V31.001L430.871 31.001L430.871 32.3222ZM430.211 16.3454L430.211 31.6616H431.532L431.532 16.3454L430.211 16.3454ZM430.404 15.8783L423.886 22.3967L424.82 23.3309L431.339 16.8125L430.404 15.8783ZM423.886 22.3967L420.682 25.601L421.616 26.5353L424.82 23.3309L423.886 22.3967ZM420.682 25.601L407.864 38.4184L408.798 39.3526L421.616 26.5353L420.682 25.601ZM408.798 38.4184L400.79 30.4098L399.856 31.3441L407.864 39.3526L408.798 38.4184ZM400.79 31.3441L419.896 12.2382L418.962 11.3039L399.856 30.4098L400.79 31.3441ZM405.167 12.4316L419.429 12.4316V11.1104L405.167 11.1104V12.4316ZM404.507 0.489258L404.507 11.771H405.828L405.828 0.489258L404.507 0.489258ZM419.011 -0.171358L405.167 -0.171359V1.14987L419.011 1.14987V-0.171358ZM423.648 -0.171358L419.011 -0.171358V1.14987L423.648 1.14988V-0.171358Z" fill="url(#paint11_linear_226_1433)" mask="url(#path-23-outside-12_226_1433)"/>
</g>
<g opacity="0.4">
<mask id="path-25-outside-13_226_1433" maskUnits="userSpaceOnUse" x="388.463" y="98.001" width="44" height="41" fill="black">
<rect fill="white" x="388.463" y="98.001" width="44" height="41"/>
<path fill-rule="evenodd" clip-rule="evenodd" d="M412.788 99.001L431.336 99.001L431.336 99.0013L431.336 110.283V110.655V114.559V130.173L420.01 130.173L420.011 114.858L413.493 121.376L410.289 124.58L397.471 137.397L389.463 129.389L408.569 110.283L394.307 110.283L394.307 99.001L408.151 99.001L412.788 99.001Z"/>
</mask>
<path d="M431.336 99.001L431.997 98.9926L431.989 98.3404L431.336 98.3404V99.001ZM412.788 99.001V98.3404V99.001ZM431.336 99.0013L431.997 99.0013L431.997 98.9929L431.336 99.0013ZM431.336 110.283H430.676H431.336ZM431.336 130.173V130.834H431.997V130.173H431.336ZM420.01 130.173H419.35V130.834H420.01V130.173ZM420.011 114.858H420.671V113.263L419.543 114.391L420.011 114.858ZM413.493 121.376L413.026 120.909L413.493 121.376ZM410.289 124.58L410.756 125.047V125.047L410.289 124.58ZM397.471 137.397L397.004 137.865L397.471 138.332L397.938 137.865L397.471 137.397ZM389.463 129.389L388.996 128.922L388.528 129.389L388.996 129.856L389.463 129.389ZM408.569 110.283L409.036 110.75L410.164 109.622H408.569V110.283ZM394.307 110.283H393.646V110.943H394.307V110.283ZM394.307 99.001V98.3404H393.646V99.001L394.307 99.001ZM408.151 99.001V99.6616V99.001ZM431.336 98.3404L412.788 98.3404V99.6616L431.336 99.6616V98.3404ZM431.997 98.9929L431.997 98.9926L430.676 99.0094L430.676 99.0097L431.997 98.9929ZM431.997 110.283L431.997 99.0013L430.676 99.0013L430.676 110.283L431.997 110.283ZM431.997 110.655V110.283H430.676V110.655H431.997ZM431.997 114.559V110.655H430.676V114.559H431.997ZM431.997 130.173V114.559H430.676V130.173H431.997ZM420.01 130.834L431.336 130.834V129.513L420.01 129.513V130.834ZM419.35 114.858L419.35 130.173H420.671L420.671 114.858H419.35ZM419.543 114.391L413.026 120.909L413.96 121.843L420.478 115.325L419.543 114.391ZM413.026 120.909L409.821 124.113L410.756 125.047L413.96 121.843L413.026 120.909ZM409.821 124.113L397.004 136.93L397.938 137.865L410.756 125.047L409.821 124.113ZM397.938 136.93L389.93 128.922L388.996 129.856L397.004 137.865L397.938 136.93ZM389.93 129.856L409.036 110.75L408.102 109.816L388.996 128.922L389.93 129.856ZM394.307 110.943L408.569 110.943V109.622L394.307 109.622V110.943ZM393.646 99.001L393.646 110.283H394.967L394.967 99.001L393.646 99.001ZM408.151 98.3404L394.307 98.3404V99.6616L408.151 99.6616V98.3404ZM412.788 98.3404L408.151 98.3404V99.6616L412.788 99.6616V98.3404Z" fill="url(#paint12_linear_226_1433)" mask="url(#path-25-outside-13_226_1433)"/>
<mask id="path-27-outside-14_226_1433" maskUnits="userSpaceOnUse" x="441.196" y="48.7448" width="44" height="41" fill="black">
<rect fill="white" x="441.196" y="48.7448" width="44" height="41"/>
<path fill-rule="evenodd" clip-rule="evenodd" d="M484.07 65.3026V80.917L472.744 80.917L472.744 65.6011L466.226 72.1193L463.022 75.3236L450.204 88.141L442.196 80.1325L461.301 61.0269L447.04 61.0269L447.04 49.7451L460.884 49.7451L465.521 49.7451L472.744 49.7451V49.7448L484.07 49.7448L484.07 61.399V65.3026Z"/>
</mask>
<path d="M484.07 80.917V81.5776H484.731V80.917H484.07ZM472.744 80.917H472.084V81.5776L472.744 81.5776V80.917ZM472.744 65.6011H473.405V64.0063L472.277 65.134L472.744 65.6011ZM463.022 75.3236L463.489 75.7908L463.022 75.3236ZM450.204 88.141L449.737 88.6081L450.204 89.0753L450.672 88.6081L450.204 88.141ZM442.196 80.1325L441.729 79.6653L441.262 80.1325L441.729 80.5996L442.196 80.1325ZM461.301 61.0269L461.769 61.494L462.896 60.3662H461.301V61.0269ZM447.04 61.0269H446.38V61.6875H447.04V61.0269ZM447.04 49.7451V49.0845H446.38V49.7451L447.04 49.7451ZM460.884 49.7451V50.4057V49.7451ZM465.521 49.7451V49.0845V49.7451ZM472.744 49.7451V50.4057H473.405V49.7451H472.744ZM472.744 49.7448V49.0841L472.084 49.0841V49.7448H472.744ZM484.07 49.7448L484.731 49.7448V49.0841L484.07 49.0841V49.7448ZM484.07 61.399H483.409H484.07ZM484.731 80.917V65.3026H483.409V80.917H484.731ZM472.744 81.5776L484.07 81.5776V80.2564L472.744 80.2564V81.5776ZM472.084 65.6011L472.084 80.917H473.405L473.405 65.6011H472.084ZM472.277 65.134L465.759 71.6522L466.693 72.5864L473.211 66.0683L472.277 65.134ZM465.759 71.6522L462.555 74.8565L463.489 75.7908L466.693 72.5864L465.759 71.6522ZM462.555 74.8565L449.737 87.6739L450.672 88.6081L463.489 75.7908L462.555 74.8565ZM450.672 87.6739L442.663 79.6653L441.729 80.5996L449.737 88.6081L450.672 87.6739ZM442.663 80.5996L461.769 61.494L460.834 60.5597L441.729 79.6653L442.663 80.5996ZM447.04 61.6875L461.301 61.6875V60.3662L447.04 60.3662V61.6875ZM446.38 49.7451L446.38 61.0269H447.701L447.701 49.7451L446.38 49.7451ZM460.884 49.0845L447.04 49.0845V50.4057L460.884 50.4057V49.0845ZM465.521 49.0845L460.884 49.0845V50.4057L465.521 50.4057V49.0845ZM472.744 49.0845L465.521 49.0845V50.4057L472.744 50.4057V49.0845ZM472.084 49.7448V49.7451H473.405V49.7448H472.084ZM484.07 49.0841L472.744 49.0841V50.4054L484.07 50.4054V49.0841ZM484.731 61.399L484.731 49.7448L483.409 49.7448L483.409 61.399L484.731 61.399ZM484.731 65.3026V61.399H483.409V65.3026H484.731Z" fill="url(#paint13_linear_226_1433)" mask="url(#path-27-outside-14_226_1433)"/>
<mask id="path-29-outside-15_226_1433" maskUnits="userSpaceOnUse" x="493.93" y="-0.510742" width="44" height="41" fill="black">
<rect fill="white" x="493.93" y="-0.510742" width="44" height="41"/>
<path fill-rule="evenodd" clip-rule="evenodd" d="M518.256 0.489259L536.804 0.489259V0.489398L536.805 0.489398L536.805 12.1436V16.0472V31.6616L525.479 31.6616L525.479 16.3454L518.961 22.8638L515.756 26.0681L502.939 38.8855L494.93 30.877L514.036 11.771L499.775 11.771L499.775 0.489258L513.619 0.489258L518.256 0.489259Z"/>
</mask>
<path d="M536.804 0.489259L537.465 0.489259V-0.171357L536.804 -0.171357V0.489259ZM518.256 0.489259V1.14988V0.489259ZM536.804 0.489398L536.143 0.489398V1.15001L536.804 1.15001V0.489398ZM536.805 0.489398L537.465 0.489398V-0.171218L536.805 -0.171218V0.489398ZM536.805 12.1436L536.144 12.1436V12.1436H536.805ZM536.805 31.6616V32.3222H537.465V31.6616H536.805ZM525.479 31.6616H524.818V32.3222H525.479V31.6616ZM525.479 16.3454H526.14V14.7505L525.012 15.8783L525.479 16.3454ZM518.961 22.8638L518.493 22.3967L518.961 22.8638ZM515.756 26.0681L516.223 26.5353L515.756 26.0681ZM502.939 38.8855L502.472 39.3526L502.939 39.8197L503.406 39.3526L502.939 38.8855ZM494.93 30.877L494.463 30.4098L493.996 30.877L494.463 31.3441L494.93 30.877ZM514.036 11.771L514.503 12.2382L515.631 11.1104H514.036V11.771ZM499.775 11.771H499.114V12.4316H499.775V11.771ZM499.775 0.489258V-0.171359H499.114V0.489258L499.775 0.489258ZM513.619 0.489258V-0.171358V0.489258ZM536.804 -0.171357L518.256 -0.171358V1.14988L536.804 1.14988V-0.171357ZM537.465 0.489398V0.489259L536.143 0.489259V0.489398L537.465 0.489398ZM536.805 -0.171218H536.804V1.15001H536.805V-0.171218ZM537.465 12.1436L537.465 0.489398L536.144 0.489398L536.144 12.1436L537.465 12.1436ZM537.465 16.0472V12.1436H536.144V16.0472H537.465ZM537.465 31.6616V16.0472H536.144V31.6616H537.465ZM525.479 32.3222L536.805 32.3222V31.001L525.479 31.001L525.479 32.3222ZM524.818 16.3454L524.818 31.6616H526.14L526.14 16.3454L524.818 16.3454ZM525.012 15.8783L518.493 22.3967L519.428 23.3309L525.946 16.8125L525.012 15.8783ZM518.493 22.3967L515.289 25.601L516.223 26.5353L519.428 23.3309L518.493 22.3967ZM515.289 25.601L502.472 38.4184L503.406 39.3526L516.223 26.5353L515.289 25.601ZM503.406 38.4184L495.397 30.4098L494.463 31.3441L502.472 39.3526L503.406 38.4184ZM495.397 31.3441L514.503 12.2382L513.569 11.3039L494.463 30.4098L495.397 31.3441ZM499.775 12.4316L514.036 12.4316V11.1104L499.775 11.1104V12.4316ZM499.114 0.489258L499.114 11.771H500.435L500.435 0.489258L499.114 0.489258ZM513.619 -0.171358L499.775 -0.171359V1.14987L513.619 1.14987V-0.171358ZM518.256 -0.171358L513.619 -0.171358V1.14987L518.256 1.14988V-0.171358Z" fill="url(#paint14_linear_226_1433)" mask="url(#path-29-outside-15_226_1433)"/>
</g>
</g>
<defs>
<linearGradient id="paint0_linear_226_1433" x1="126.577" y1="99.001" x2="126.577" y2="137.397" gradientUnits="userSpaceOnUse">
<stop stop-color="#87F1FF"/>
<stop offset="1" stop-color="#1235ED"/>
</linearGradient>
<linearGradient id="paint1_linear_226_1433" x1="179.31" y1="49.7448" x2="179.31" y2="88.1409" gradientUnits="userSpaceOnUse">
<stop stop-color="#87F1FF"/>
<stop offset="1" stop-color="#1235ED"/>
</linearGradient>
<linearGradient id="paint2_linear_226_1433" x1="232.045" y1="0.489258" x2="232.045" y2="38.8855" gradientUnits="userSpaceOnUse">
<stop stop-color="#87F1FF"/>
<stop offset="1" stop-color="#1235ED"/>
</linearGradient>
<linearGradient id="paint3_linear_226_1433" x1="21.1087" y1="99.001" x2="21.1087" y2="137.397" gradientUnits="userSpaceOnUse">
<stop stop-color="#87F1FF"/>
<stop offset="1" stop-color="#1235ED"/>
</linearGradient>
<linearGradient id="paint4_linear_226_1433" x1="73.8421" y1="49.7448" x2="73.8421" y2="88.1409" gradientUnits="userSpaceOnUse">
<stop stop-color="#87F1FF"/>
<stop offset="1" stop-color="#1235ED"/>
</linearGradient>
<linearGradient id="paint5_linear_226_1433" x1="126.577" y1="0.489258" x2="126.577" y2="38.8855" gradientUnits="userSpaceOnUse">
<stop stop-color="#87F1FF"/>
<stop offset="1" stop-color="#1235ED"/>
</linearGradient>
<linearGradient id="paint6_linear_226_1433" x1="221.185" y1="99.001" x2="221.185" y2="137.397" gradientUnits="userSpaceOnUse">
<stop stop-color="#87F1FF"/>
<stop offset="1" stop-color="#1235ED"/>
</linearGradient>
<linearGradient id="paint7_linear_226_1433" x1="273.918" y1="49.7448" x2="273.918" y2="88.1409" gradientUnits="userSpaceOnUse">
<stop stop-color="#87F1FF"/>
<stop offset="1" stop-color="#1235ED"/>
</linearGradient>
<linearGradient id="paint8_linear_226_1433" x1="326.653" y1="0.489258" x2="326.653" y2="38.8855" gradientUnits="userSpaceOnUse">
<stop stop-color="#87F1FF"/>
<stop offset="1" stop-color="#1235ED"/>
</linearGradient>
<linearGradient id="paint9_linear_226_1433" x1="315.792" y1="99.001" x2="315.792" y2="137.397" gradientUnits="userSpaceOnUse">
<stop stop-color="#87F1FF"/>
<stop offset="1" stop-color="#1235ED"/>
</linearGradient>
<linearGradient id="paint10_linear_226_1433" x1="368.525" y1="49.7448" x2="368.525" y2="88.1409" gradientUnits="userSpaceOnUse">
<stop stop-color="#87F1FF"/>
<stop offset="1" stop-color="#1235ED"/>
</linearGradient>
<linearGradient id="paint11_linear_226_1433" x1="421.26" y1="0.489258" x2="421.26" y2="38.8855" gradientUnits="userSpaceOnUse">
<stop stop-color="#87F1FF"/>
<stop offset="1" stop-color="#1235ED"/>
</linearGradient>
<linearGradient id="paint12_linear_226_1433" x1="410.399" y1="99.001" x2="410.399" y2="137.397" gradientUnits="userSpaceOnUse">
<stop stop-color="#87F1FF"/>
<stop offset="1" stop-color="#1235ED"/>
</linearGradient>
<linearGradient id="paint13_linear_226_1433" x1="463.133" y1="49.7448" x2="463.133" y2="88.1409" gradientUnits="userSpaceOnUse">
<stop stop-color="#87F1FF"/>
<stop offset="1" stop-color="#1235ED"/>
</linearGradient>
<linearGradient id="paint14_linear_226_1433" x1="515.867" y1="0.489258" x2="515.867" y2="38.8855" gradientUnits="userSpaceOnUse">
<stop stop-color="#87F1FF"/>
<stop offset="1" stop-color="#1235ED"/>
</linearGradient>
<clipPath id="clip0_226_1433">
<rect width="536.633" height="136.908" fill="white" transform="translate(0.171844 0.489258)"/>
</clipPath>
</defs>
</svg>
